<?xml version="1.0" encoding="utf-8"?>
<!-- Generator: Adobe Illustrator 16.0.0, SVG Export Plug-In . SVG Version: 6.00 Build 0)  -->
<!DOCTYPE svg PUBLIC "-//W3C//DTD SVG 1.1//EN" "http://www.w3.org/Graphics/SVG/1.1/DTD/svg11.dtd">
<svg version="1.1" id="Layer_1" xmlns="http://www.w3.org/2000/svg" xmlns:xlink="http://www.w3.org/1999/xlink" x="0px" y="0px"
	 width="512px" height="512px" viewBox="0 0 512 512" enable-background="new 0 0 512 512" xml:space="preserve">
<path d="M255.703-0.531c-141.391,0-256,114.625-256,256s114.609,256,256,256s256.016-114.625,256.016-256
	S397.094-0.531,255.703-0.531z M255.703,479.469c-123.516,0-224-100.5-224-224s100.484-224,224-224s224.016,100.5,224.016,224
	S379.219,479.469,255.703,479.469z M271.703,223.469h-32v-128h32V223.469z M383.719,255.469c0,70.625-57.438,128-128.016,128
	s-128-57.375-128-128c0-53.5,33.266-98.813,80-117.875v35.375c-28.578,16.625-48,47.125-48,82.5c0,52.938,43.063,96,96,96
	c52.953,0,96.016-43.063,96.016-96c0-35.313-19.438-65.875-48-82.5v-35.375C350.469,156.656,383.719,201.969,383.719,255.469z"/>
</svg>
